<?xml version="1.0" encoding="UTF-8" standalone="no"?>
<!-- Created with Inkscape (http://www.inkscape.org/) -->

<svg
   xmlns:dc="http://purl.org/dc/elements/1.1/"
   xmlns:cc="http://creativecommons.org/ns#"
   xmlns:rdf="http://www.w3.org/1999/02/22-rdf-syntax-ns#"
   xmlns:svg="http://www.w3.org/2000/svg"
   xmlns="http://www.w3.org/2000/svg"
   xmlns:sodipodi="http://sodipodi.sourceforge.net/DTD/sodipodi-0.dtd"
   xmlns:inkscape="http://www.inkscape.org/namespaces/inkscape"
   width="600"
   height="134.01479"
   id="svg2"
   version="1.1"
   inkscape:version="0.48.4 r9939"
   sodipodi:docname="HBO Sports 2013.svg">
  <defs
     id="defs4" />
  <sodipodi:namedview
     id="base"
     pagecolor="#ffffff"
     bordercolor="#666666"
     borderopacity="1.0"
     inkscape:pageopacity="0.0"
     inkscape:pageshadow="2"
     inkscape:zoom="0.98994949"
     inkscape:cx="477.21516"
     inkscape:cy="96.813458"
     inkscape:document-units="px"
     inkscape:current-layer="layer1"
     showgrid="false"
     inkscape:window-width="1366"
     inkscape:window-height="706"
     inkscape:window-x="-8"
     inkscape:window-y="-8"
     inkscape:window-maximized="1"
     fit-margin-top="0"
     fit-margin-left="0"
     fit-margin-right="0"
     fit-margin-bottom="0" />
  <metadata
     id="metadata7">
    <rdf:RDF>
      <cc:Work
         rdf:about="">
        <dc:format>image/svg+xml</dc:format>
        <dc:type
           rdf:resource="http://purl.org/dc/dcmitype/StillImage" />
        <dc:title></dc:title>
      </cc:Work>
    </rdf:RDF>
  </metadata>
  <g
     inkscape:label="Layer 1"
     inkscape:groupmode="layer"
     id="layer1"
     transform="translate(343.43656,-893.43091)">
    <g
       id="g3911"
       transform="translate(-343.43656,893.43086)">
      <path
         id="path3897"
         d="m 533.81457,101.12825 c -18.38207,0 -33.30572,-14.923668 -33.30572,-33.305779 0,-18.391953 14.92365,-33.295822 33.30572,-33.295822 18.39203,0 33.28595,14.90387 33.28595,33.295822 0,18.382111 -14.89392,33.305779 -33.28595,33.305779 M 533.56689,1.121803 c -36.70474,0 -66.45297,29.758148 -66.45297,66.452942 0,36.684875 29.74823,66.433145 66.45297,66.433145 C 570.25171,134.00789 600,104.25966 600,67.574745 600,30.879951 570.25171,1.121803 533.56689,1.121803"
         inkscape:connector-curvature="0"
         style="fill:#000000" />
      <path
         id="path3899"
         d="m 533.56488,41.450401 c -14.42816,0 -26.13129,11.683273 -26.13129,26.121368 0,14.418297 11.70313,26.121407 26.13129,26.121407 14.42822,0 26.1214,-11.70311 26.1214,-26.121407 0,-14.438095 -11.69318,-26.121368 -26.1214,-26.121368"
         inkscape:connector-curvature="0"
         style="fill:#4279bb" />
      <path
         id="path3901"
         d="m 398.0141,85.59713 37.38849,0 c -8.34378,24.04038 -31.08603,20.03696 -31.08603,20.03696 -18.37219,-0.33691 -26.99344,-15.359684 -26.99344,-15.359684 -15.36957,-26.725883 0,-46.406097 0,-46.406097 7.00598,-12.35714 25.36829,-13.694878 25.36829,-13.694878 22.36572,0 30.0455,16.697464 30.0455,16.697464 l 34.71292,0 C 458.75922,20.313469 433.78732,1.118827 404.31656,1.118827 c -36.68488,0 -66.42322,29.758148 -66.42322,66.452942 0,36.684871 29.73834,66.443061 66.42322,66.443061 36.7146,0 66.45294,-29.75815 66.45294,-66.443061 0,-2.487259 -0.14862,-4.934921 -0.41617,-7.342911 l -72.33923,0 0,25.368271 z"
         inkscape:connector-curvature="0"
         style="fill:#000000" />
      <path
         id="path3903"
         d="m 256.59598,92.187935 c 14.37866,0 26.00247,-11.653557 26.00247,-26.022301 0,-14.378624 -11.62381,-26.032181 -26.00247,-26.032181 -14.36872,0 -26.02228,11.653557 -26.02228,26.032181 0,14.368744 11.65356,26.022301 26.02228,26.022301 M 223.48842,66.165634 c 0,-18.302765 14.83449,-33.107529 33.10756,-33.107529 18.28299,0 33.11746,14.804764 33.11746,33.107529 0,18.273087 -14.83447,33.097649 -33.11746,33.097649 -18.27307,0 -33.10756,-14.824562 -33.10756,-33.097649 m -46.08898,0 c 4.08271,-0.535088 10.91033,-5.202446 13.31833,-8.205032 -0.8423,3.716049 -0.90175,14.448013 0.0793,18.144264 -2.74492,-4.221458 -9.24555,-9.423943 -13.39762,-9.939232 M 153.59686,31.115852 c 5.20247,0 9.29509,5.133095 9.29509,10.989571 0,5.836716 -4.09262,10.989609 -9.29509,10.989609 l -17.88661,0 0,-21.979179 17.88661,0 z m -0.0694,48.823967 c 5.2124,0 9.30499,5.133133 9.30499,10.999527 0,5.846596 -4.09259,10.979694 -9.30499,10.979694 l -17.87669,0 0,-21.979221 17.87669,0 z m 103.04863,52.926511 c 36.43716,-0.01 66.08633,-30.29326 66.07642,-66.720494 C 322.65251,28.925835 293.01325,0.01989 256.57609,9.2e-5 220.1687,-0.039543 201.57853,26.745736 196.99043,37.566887 197.03003,21.345078 181.03617,2.180153 162.31716,2.150436 l -60.28926,0 0,130.051954 56.20655,0.0198 c 22.67288,0 38.79562,-19.63066 38.81543,-36.466864 5.19256,10.593224 23.11882,37.130824 59.52621,37.110984 m -161.910911,-0.61441 -35.337196,0 0,-50.459014 -22.940441,0 0,50.459014 -36.268688,0 L -2.0000001e-6,2.170196 36.3876,2.170196 l 0,48.397865 22.940441,0 0,-48.397865 35.337196,0 0,130.081664 -3.8e-5,0 z"
         inkscape:connector-curvature="0"
         style="fill:#000000" />
    </g>
  </g>
</svg>
